<?xml version="1.0" encoding="utf-8"?>
<svg version="1.1" xmlns="http://www.w3.org/2000/svg" xmlns:xlink="http://www.w3.org/1999/xlink" viewBox="0 0 28.805 38.33" fill="#e83817">
<g>
	<path d="M24.082,28.539H11.156c-0.269,0-0.504-0.186-0.567-0.448l-2.086-8.752c-0.042-0.173-0.001-0.356,0.109-0.496
		c0.111-0.14,0.279-0.222,0.458-0.222h17.099c0.179,0,0.347,0.081,0.458,0.222c0.111,0.14,0.151,0.323,0.109,0.496l-2.087,8.752
		C24.586,28.353,24.352,28.539,24.082,28.539z M11.617,27.373h12.006l1.808-7.586H9.808L11.617,27.373z"/>
	<path d="M21.553,28.539h-7.866c-0.289,0-0.534-0.213-0.576-0.499l-1.27-8.752c-0.024-0.168,0.026-0.338,0.136-0.466
		c0.111-0.128,0.271-0.201,0.441-0.201h10.406c0.169,0,0.33,0.073,0.441,0.201c0.111,0.128,0.16,0.298,0.136,0.466l-1.27,8.752
		C22.088,28.326,21.842,28.539,21.553,28.539z M14.19,27.373h6.858l1.101-7.586h-9.06L14.19,27.373z"/>
	<path d="M9.07,19.787c-0.141,0-0.282-0.05-0.394-0.153l-3.31-3.035h-2.73c-0.322,0-0.583-0.261-0.583-0.583
		c0-0.321,0.261-0.582,0.583-0.582h2.957c0.146,0,0.287,0.054,0.393,0.153l3.477,3.188c0.237,0.218,0.253,0.586,0.036,0.824
		C9.385,19.723,9.227,19.787,9.07,19.787z"/>
	<path d="M12.548,36.277c-1.408,0-2.553-1.146-2.553-2.553c0-1.408,1.146-2.554,2.553-2.554s2.553,1.146,2.553,2.554
		C15.101,35.131,13.956,36.277,12.548,36.277z M12.548,32.335c-0.765,0-1.388,0.622-1.388,1.388c0,0.765,0.623,1.388,1.388,1.388
		s1.388-0.623,1.388-1.388C13.936,32.958,13.313,32.335,12.548,32.335z"/>
	<path d="M22.138,36.277c-1.408,0-2.553-1.146-2.553-2.553c0-1.408,1.145-2.554,2.553-2.554c1.408,0,2.554,1.146,2.554,2.554
		C24.692,35.131,23.546,36.277,22.138,36.277z M22.138,32.335c-0.765,0-1.387,0.622-1.387,1.388c0,0.765,0.623,1.388,1.387,1.388
		c0.765,0,1.388-0.623,1.388-1.388C23.526,32.958,22.903,32.335,22.138,32.335z"/>
	<path d="M12.549,32.335c-0.178,0-0.353-0.081-0.468-0.234c-0.192-0.258-0.14-0.622,0.118-0.816l5.071-3.796
		c0.217-0.161,0.517-0.153,0.724,0.021l4.518,3.796c0.247,0.207,0.279,0.574,0.071,0.82c-0.207,0.247-0.574,0.279-0.821,0.071
		L17.599,28.7l-4.702,3.52C12.792,32.297,12.67,32.335,12.549,32.335z"/>
	<path d="M20.167,34.306h-5.649c-0.321,0-0.582-0.261-0.582-0.583c0-0.322,0.261-0.583,0.582-0.583h5.649
		c0.322,0,0.584,0.261,0.584,0.583C20.751,34.045,20.489,34.306,20.167,34.306z"/>
	<path d="M26.169,36.277H2.636c-0.322,0-0.583-0.261-0.583-0.583c0-0.321,0.261-0.582,0.583-0.582h23.532
		c0.322,0,0.583,0.261,0.583,0.582C26.752,36.016,26.491,36.277,26.169,36.277z"/>
	<path d="M24.526,26.346H10.745c-0.322,0-0.583-0.261-0.583-0.583c0-0.321,0.261-0.582,0.583-0.582h13.781
		c0.323,0,0.583,0.261,0.583,0.582C25.109,26.085,24.849,26.346,24.526,26.346z"/>
	<path d="M12.259,19.787c-0.206,0-0.407-0.11-0.511-0.304L5.745,8.464C5.487,7.989,5.428,7.443,5.58,6.924
		c0.153-0.519,0.499-0.947,0.974-1.205l6.275-3.419c0.98-0.533,2.212-0.17,2.746,0.81l6.089,11.176
		c0.07,0.128,0.089,0.277,0.054,0.418L20.6,19.257c-0.077,0.311-0.392,0.504-0.706,0.426c-0.312-0.077-0.503-0.392-0.426-0.705
		l1.066-4.334L14.552,3.666c-0.226-0.415-0.749-0.57-1.165-0.343L7.112,6.742C6.91,6.852,6.763,7.033,6.699,7.254
		c-0.066,0.22-0.041,0.452,0.07,0.654l6.002,11.018c0.154,0.283,0.05,0.637-0.233,0.791C12.449,19.764,12.354,19.787,12.259,19.787z
		"/>
	<path d="M16.236,18.175c-0.767,0-1.509-0.408-1.902-1.127c-0.57-1.046-0.183-2.362,0.864-2.932c0.507-0.277,1.092-0.34,1.645-0.175
		c0.554,0.163,1.011,0.532,1.287,1.039s0.338,1.09,0.175,1.644c-0.163,0.554-0.532,1.011-1.039,1.287
		C16.939,18.09,16.585,18.175,16.236,18.175z M15.358,16.491c0.262,0.482,0.868,0.66,1.351,0.398
		c0.233-0.127,0.403-0.338,0.479-0.593c0.075-0.255,0.047-0.525-0.081-0.758c-0.128-0.234-0.338-0.404-0.593-0.479
		c-0.256-0.074-0.525-0.046-0.758,0.081C15.274,15.402,15.095,16.009,15.358,16.491L15.358,16.491z"/>
	<path d="M20.032,19.709c-0.046,0-0.093-0.005-0.14-0.017c-0.312-0.077-0.504-0.392-0.426-0.705l1.067-4.342l-5.132-9.421
		c-0.096-0.178-0.094-0.392,0.007-0.568c0.1-0.176,0.284-0.286,0.486-0.293c0.033-0.005,0.047-0.005,0.079-0.003l7.133,0.071
		c0.541,0.005,1.047,0.221,1.425,0.607c0.378,0.386,0.584,0.896,0.578,1.437l-0.108,10.703c-0.003,0.319-0.264,0.576-0.583,0.576
		c-0.328-0.003-0.586-0.266-0.582-0.588l0.108-10.703c0.005-0.473-0.376-0.862-0.85-0.867l-6.196-0.062l4.768,8.752
		c0.07,0.128,0.089,0.277,0.054,0.418l-1.122,4.562C20.532,19.531,20.294,19.709,20.032,19.709z"/>
</g>















</svg>
