<?xml version="1.0" encoding="utf-8"?>
<svg version="1.1" xmlns="http://www.w3.org/2000/svg" xmlns:xlink="http://www.w3.org/1999/xlink" viewBox="0 0 24.082 22.187">
<path d="M11.093,9.34c1.692,0,3.069-1.377,3.069-3.07c0-1.692-1.377-3.07-3.069-3.07c-1.693,0-3.07,1.377-3.07,3.07
	C8.024,7.963,9.401,9.34,11.093,9.34z M11.093,3.996c1.254,0,2.274,1.02,2.274,2.275s-1.02,2.275-2.274,2.275
	S8.819,7.524,8.819,6.27S9.839,3.996,11.093,3.996z"/>
<path d="M13.334,14.161c-0.22,0-0.398,0.178-0.398,0.398v1.591c0,0.22,0.178,0.398,0.398,0.398h2.894
	c0.197,0,0.364-0.144,0.393-0.338l0.354-2.344c0.116-0.994-0.199-1.993-0.865-2.742c-0.666-0.748-1.621-1.177-2.622-1.177
	c-0.078,0-0.153,0.023-0.218,0.065l-0.175,0.115c-1.216,0.799-2.788,0.799-4.005,0l-0.175-0.115C8.851,9.97,8.775,9.948,8.698,9.948
	c-1.001,0-1.957,0.429-2.623,1.177c-0.665,0.748-0.981,1.747-0.863,2.755l0.352,2.331c0.03,0.194,0.197,0.338,0.393,0.338h2.894
	c0.219,0,0.398-0.178,0.398-0.398v-1.591c0-0.22-0.178-0.398-0.398-0.398c-0.22,0-0.398,0.178-0.398,0.398v1.194H6.3L6,13.774
	c-0.09-0.77,0.154-1.542,0.669-2.121c0.489-0.55,1.181-0.877,1.913-0.908l0.071,0.047c1.482,0.974,3.397,0.973,4.878,0l0.072-0.047
	c0.733,0.031,1.424,0.358,1.914,0.908c0.515,0.579,0.759,1.352,0.67,2.107l-0.301,1.992h-2.155v-1.194
	C13.732,14.339,13.554,14.161,13.334,14.161z"/>
<path d="M22.05,4.319l0.429-0.558c0.134-0.174,0.101-0.424-0.073-0.558c-0.174-0.134-0.424-0.102-0.557,0.073l-0.353,0.459
	c-0.635-0.539-1.445-0.877-2.341-0.877c-2.006,0-3.639,1.632-3.639,3.639c0,2.006,1.632,3.638,3.639,3.638
	c0.303,0,0.594-0.048,0.875-0.119c0.042,0.357,0.071,0.716,0.071,1.077c0,4.967-4.041,9.008-9.008,9.008
	c-4.967,0-9.008-4.041-9.008-9.008c0-4.967,4.041-9.008,9.008-9.008c1.495,0,2.976,0.374,4.282,1.081
	c0.193,0.104,0.435,0.033,0.539-0.16c0.104-0.193,0.033-0.435-0.16-0.539c-1.422-0.77-3.034-1.177-4.661-1.177
	c-5.406,0-9.803,4.398-9.803,9.804c0,5.405,4.398,9.803,9.803,9.803c5.405,0,9.803-4.397,9.803-9.803
	c0-0.458-0.04-0.915-0.103-1.367c1.18-0.602,1.998-1.816,1.998-3.23C22.792,5.677,22.509,4.928,22.05,4.319z M19.154,9.34
	c-1.568,0-2.843-1.276-2.843-2.843c0-1.568,1.275-2.843,2.843-2.843c0.714,0,1.359,0.273,1.858,0.709L18.985,7l-1.036-1.264
	c-0.14-0.17-0.39-0.194-0.56-0.055c-0.17,0.139-0.195,0.39-0.056,0.559l1.353,1.651c0.075,0.092,0.189,0.146,0.308,0.146
	c0.002,0,0.004,0,0.006,0c0.121-0.002,0.235-0.059,0.309-0.155l2.236-2.908c0.282,0.441,0.451,0.962,0.451,1.524
	C21.997,8.065,20.722,9.34,19.154,9.34z"/>















</svg>
