<?xml version="1.0" encoding="utf-8"?>
<svg version="1.1" xmlns="http://www.w3.org/2000/svg" xmlns:xlink="http://www.w3.org/1999/xlink" viewBox="0 0 44.134 31.794">
<path d="M39.347,8.653c-0.645-0.348-1.371-0.563-2.153-0.563h-2.657L22.305,2.418c-0.157-0.074-0.338-0.071-0.492,0.006L10.485,8.09
	H6.939c-0.783,0-1.508,0.216-2.153,0.563C3.998,9.078,3.355,9.72,2.929,10.508c-0.349,0.645-0.565,1.372-0.565,2.156v12.191
	c0,0.784,0.216,1.511,0.565,2.156c0.424,0.786,1.065,1.427,1.851,1.852c0.646,0.35,1.374,0.566,2.159,0.566h30.255
	c0.785,0,1.513-0.217,2.16-0.566c0.786-0.425,1.427-1.067,1.852-1.853c0.348-0.645,0.565-1.372,0.565-2.155V12.664
	c0-0.783-0.216-1.51-0.565-2.155C40.779,9.721,40.136,9.078,39.347,8.653z M22.077,3.56l9.767,4.53H13.014L22.077,3.56z
	 M40.639,24.855c0,1.897-1.546,3.442-3.445,3.442H6.939c-1.897,0-3.443-1.545-3.443-3.442V12.664c0-1.9,1.546-3.445,3.443-3.445
	h27.454h0.024h2.776c1.899,0,3.445,1.545,3.445,3.445V24.855z"/>
<path d="M37.194,11.069H6.939c-0.879,0-1.595,0.715-1.595,1.595v12.191c0,0.881,0.716,1.595,1.595,1.595h30.255
	c0.88,0,1.595-0.714,1.595-1.595V12.664C38.789,11.784,38.074,11.069,37.194,11.069z M37.656,24.855
	c0,0.255-0.207,0.463-0.462,0.463H6.939c-0.255,0-0.463-0.208-0.463-0.463V12.664c0-0.255,0.208-0.462,0.463-0.462h30.255
	c0.255,0,0.462,0.207,0.462,0.462V24.855z"/>
<path d="M13.337,15.587c-0.981,0-1.73,0.273-2.245,0.815c-0.516,0.543-0.772,1.328-0.772,2.357c0,1.041,0.259,1.835,0.775,2.378
	c0.519,0.542,1.263,0.815,2.233,0.815c0.984,0,1.731-0.27,2.241-0.812c0.51-0.539,0.766-1.331,0.766-2.372
	c0-1.043-0.254-1.835-0.764-2.372C15.067,15.857,14.32,15.587,13.337,15.587z M14.269,20.126c-0.204,0.291-0.519,0.436-0.941,0.436
	c-0.832,0-1.248-0.599-1.248-1.794c0-1.206,0.418-1.811,1.257-1.811c0.412,0,0.72,0.148,0.928,0.442
	c0.207,0.296,0.311,0.753,0.311,1.369C14.576,19.385,14.472,19.836,14.269,20.126z"/>
<path d="M19.592,15.685h-2.141v6.184h1.671v-2.051h0.47c0.75,0,1.328-0.19,1.736-0.563c0.408-0.38,0.612-0.913,0.612-1.604
	c0-0.628-0.196-1.112-0.589-1.456C20.959,15.857,20.374,15.685,19.592,15.685z M20.025,18.244c-0.148,0.139-0.347,0.21-0.597,0.21
	h-0.305v-1.42h0.431c0.462,0,0.694,0.21,0.694,0.625C20.248,17.908,20.174,18.104,20.025,18.244z"/>
<polygon points="22.925,21.869 26.598,21.869 26.598,20.506 24.597,20.506 24.597,19.337 26.45,19.337 26.45,17.997 24.597,17.997 
	24.597,17.025 26.598,17.025 26.598,15.685 22.925,15.685 "/>
<path d="M32.078,18.481c0,0.376,0.019,0.878,0.061,1.503h-0.027l-2.25-4.299H27.68v6.184h1.479v-2.787
	c0-0.362-0.027-0.886-0.08-1.571h0.038l2.259,4.358h2.191v-6.184h-1.49V18.481z"/>















</svg>
